PathFileType	4	(X/Y/Z)	Patient4_TMGait_0pt5_01_right_31.trc.trc
DataRate	CameraRate	NumFrames	NumMarkers	Units	OrigDataRate	OrigDataStartFrame	OrigNumFrames
75.675675675676	75.675675675676	7	33	mm	75.675675675676	1	       141
Frame#	Time	L.ASIS			Sacral			L.Shoulder			Chest			R.Shoulder			Neck			R.ASIS			R.Thigh.Superior			R.Thigh.Lateral			R.Thigh.Inferior			R.Patella			L.Thigh.Superior			L.Thigh.Lateral			L.Thigh.Inferior			L.Patella			L.Shank.Superior			L.Shank.Lateral			L.Shank.Inferior			R.Shank.Superior			R.Shank.Lateral			R.Shank.Inferior			R.Heel			R.Midfoot.Superior			R.Midfoot.Lateral			R.Toe			L.Heel			L.Midfoot.Lateral			L.Midfoot.Superior			L.Toe			L.Elbow			L.Wrist			R.Elbow			R.Wrist			
		X1	Y1	Z1	X2	Y2	Z2	X3	Y3	Z3	X4	Y4	Z4	X5	Y5	Z5	X6	Y6	Z6	X7	Y7	Z7	X8	Y8	Z8	X9	Y9	Z9	X10	Y10	Z10	X11	Y11	Z11	X12	Y12	Z12	X13	Y13	Z13	X14	Y14	Z14	X15	Y15	Z15	X16	Y16	Z16	X17	Y17	Z17	X18	Y18	Z18	X19	Y19	Z19	X20	Y20	Z20	X21	Y21	Z21	X22	Y22	Z22	X23	Y23	Z23	X24	Y24	Z24	X25	Y25	Z25	X26	Y26	Z26	X27	Y27	Z27	X28	Y28	Z28	X29	Y29	Z29	X30	Y30	Z30	X31	Y31	Z31	X32	Y32	Z32	X33	Y33	Z33	

1	40.750000000000	877.891003576976	962.653190149603	295.277782581184	664.076472374447	1013.003421920414	451.408037661289	848.015583992127	1437.617472429886	266.924972269447	948.593398500975	1366.892076387691	429.385272854490	864.033385265715	1443.166067614675	602.671317964769	851.853063508110	1500.460047197701	417.285247662531	887.467393853138	949.078556903135	569.731850091324	963.004408645789	771.319069831954	541.097951036190	915.366071671717	652.217865591816	610.833358850778	1003.492794266332	607.993412690815	531.950697991130	1015.545609497002	492.736511855973	553.250395475963	924.116060649247	751.104738101124	329.682037537155	833.652163914210	636.795207336008	274.499370782945	914.603394310400	559.055270108473	341.190958847140	913.244632221861	489.035609923022	354.445027024421	887.225577976886	417.404833493694	347.446924234779	800.332060070384	302.129864471271	296.670333938029	845.956380454131	193.275667643310	373.261135089641	934.090656874087	423.052117893785	561.202022701219	810.951765976144	391.892946811398	622.447797916986	788.290818570134	284.298049712747	574.779580806452	584.131599515272	243.911270140235	548.417443904487	743.916532116806	163.375676832365	588.861688984273	635.511222853232	178.243104374316	622.686722143992	793.406323254759	44.322258798161	617.795222423417	714.102161730895	38.200756249205	414.302167064452	790.012555661531	35.406030768455	335.198125446509	873.192687080406	95.935409995594	363.691324449144	1002.089475198909	41.389069414679	338.857536952770	860.374801932514	1085.989316383838	136.938174599772	1017.023373023214	875.989782232695	136.784214879714	799.590377915799	1101.902129267319	720.321459650560	857.031634037404	846.348823891091	733.017395491437	
2	40.763214285714	878.919912683137	963.606299857908	294.770515614309	662.855031037594	1014.061470494606	449.838485989314	849.353197602997	1438.350817569920	266.241678593828	948.275080154426	1367.559182763622	429.612524353484	862.125661294875	1443.893383229603	602.088078738893	851.504958443806	1501.149327211913	416.660240753272	885.940665749022	950.187928305140	569.510048495788	963.525671302275	774.812209328081	540.398071780510	918.468736412804	655.233894848111	610.832848259805	1006.591174221725	612.121548365058	531.505830137696	1021.075311085136	497.728476916087	553.253628257464	921.175784222889	750.264155322669	329.676413629138	829.256974998027	637.128824547084	273.924145217050	908.767981560230	558.414596849475	340.769513382487	906.389501817102	488.764089033187	354.061783656556	880.584401771860	417.513058881117	346.900261247523	793.499981675529	302.287254195052	296.248327112512	839.038618998220	193.385952576951	372.906104144147	942.167591252819	425.946951471886	561.126252546249	820.593410060181	390.020064450556	622.241381451318	802.122170708426	281.812419571334	574.349229809937	600.000089318577	232.991240028330	547.863803723583	762.727198664662	159.717294794228	588.215717473857	654.117229386085	169.900223920300	622.144123611993	817.338891251637	43.243118708168	617.326851687278	707.004521621349	38.329780098796	414.219537621518	782.996615044692	35.429715416044	335.144477675900	866.220303935707	95.929200255705	363.513540487468	995.087113261867	41.304993418044	338.797226216366	865.196584682044	1087.396474355712	135.631071111801	1029.193136749993	883.735673035772	135.113741620513	787.993258760459	1105.455610161846	719.467633882393	834.035833723233	848.661108233674	734.004965276657	
3	40.776428571429	879.847727862992	964.487159621432	294.317450001910	661.634851703383	1015.078331489176	448.285254461374	850.677038114292	1439.039345618721	265.586480539009	947.955020276005	1368.192482644424	429.861339286669	860.232849185735	1444.600507979616	601.528306119807	851.161009139524	1501.804727748861	416.056074844729	884.421734405934	951.247881895523	569.309322041940	963.978055955414	778.181889989523	539.749751637971	921.411490716003	658.141689792717	610.869718451114	1009.509279658237	616.096291444758	531.116854905552	1026.366239164006	502.616516090932	553.324076328807	918.255789097313	749.423335173927	329.674395496503	824.883878060568	637.457129573353	273.345825054143	902.968668482259	557.779977657363	340.332776363247	899.576892354625	488.492986279929	353.663601152198	873.980459390150	417.615884847522	346.348196203569	786.703131121791	302.444314509406	295.823379237552	832.164282739556	193.496584461532	372.545569135347	950.069702081640	428.733745316031	561.124938544514	830.141208250714	387.948082886073	622.115178320615	815.979787671844	279.149414412079	574.013980427358	616.034595516768	221.733870170257	547.391595298767	781.679481405863	155.897023184541	587.695602483418	672.901136404361	161.307464661950	621.720298750691	841.469327221908	42.103953118397	617.004481553646	699.958501184457	38.460003438847	414.135599356948	776.025788900069	35.452018450423	335.090961206183	859.293360700890	95.923961547770	363.335803593161	988.129338023524	41.219476110845	338.738686327750	869.910994233934	1088.750546368431	134.369426487435	1041.158972330614	891.448803677254	133.514384860072	776.498133961308	1109.025469794021	718.598695744346	811.367849225026	851.098975580364	734.938284447610	
4	40.789642857143	880.589588953356	965.229195496916	293.971293875662	660.427973514697	1016.009271290958	446.778393147387	851.967806678315	1439.635912486417	264.994393224659	947.633625890369	1368.752622610531	430.155441038580	858.380561616399	1445.260915322063	601.020291357741	850.826386535935	1502.386895219659	415.501022364328	882.922686047935	952.201182814367	569.158297083944	964.264969093775	781.266341424510	539.217459536974	923.977018637884	660.803382370261	610.990929211252	1012.020818467039	619.726054806627	530.853278406578	1031.128343250462	507.263693112984	553.519231818397	915.377796723390	748.580801235708	329.680571907569	820.559276084648	637.772384538936	272.770343949062	897.246350053214	557.153472466614	339.875407782731	892.859837130746	488.219502237014	353.239539687632	867.455633278083	417.705819120180	345.790501181581	779.978204539526	302.600717287361	295.396155755211	825.374897821012	193.605413636994	372.177851091276	957.580474716757	431.305542529983	561.263449336751	839.497061759203	385.514192051658	622.149095264362	829.867370984166	276.206463732858	573.860009599696	632.445339944451	209.927192284049	547.085347806029	800.885232040086	151.867939575321	587.409941733224	692.053470227798	152.339774233283	621.513337707885	865.931370724739	40.990021586695	616.945487928557	693.010998389448	38.589706269920	414.050660991929	769.141199801095	35.471187368289	335.038618006845	852.453206898342	95.919369063600	363.159004621456	981.257352656969	41.132148820126	338.683327499122	874.407861584339	1089.996579878733	133.204033244502	1052.688715033909	899.069981309300	132.064103621959	765.261564331050	1112.602627218194	717.710765209813	789.426503917348	853.746274057346	735.762419654862	
5	40.802857142857	881.091282130000	965.784803695737	293.772231003304	659.245736754209	1016.816969713114	445.344072988928	853.209794297809	1440.100699038263	264.496296570809	947.311058805821	1369.205366937719	430.516670318738	856.589304012075	1445.851296571474	600.587402494946	850.505519907459	1502.861990666798	415.019785753435	881.450013097522	952.997846583201	569.083876693911	964.294482965603	783.920601739611	538.859427956779	925.961394000945	663.093880381109	611.236218552612	1013.920304469676	622.839627623712	530.778422313635	1035.108745769124	511.552432777214	553.882981784408	912.554605042516	747.730403298287	329.697283306631	816.293218515253	638.067725998910	272.204713325187	891.620071474021	556.533641949921	339.395367994084	886.267920755516	487.940695190105	352.779992202390	861.026422391207	417.775654726748	345.227505056476	773.335163094270	302.756045303054	294.966874515412	818.683431539041	193.709765059319	371.802100339660	964.521749117533	433.578234478266	561.593007126078	848.607261822707	382.586550795811	622.412081492853	843.823531905385	272.920573671933	573.958694629862	649.484194006507	197.409249620575	547.017307255300	820.490333917124	147.630235868347	587.445534710575	711.806947061970	142.922084578586	621.603718954979	890.889263568873	40.038187481862	617.243961840829	686.177749513152	38.717027336474	413.964317586531	762.354029123781	35.485353805342	334.988390872799	845.710932034438	95.914488013306	362.984038521175	974.482515986970	41.043134965400	338.632109679907	878.609574551184	1091.090912146838	132.175511772941	1063.610323832036	906.560270203380	130.828891400448	754.408805420553	1116.181466873327	716.804962587670	768.510359183394	856.662486077147	736.432085664407	
6	40.816071428571	881.333795759528	966.128034851086	293.744606782197	658.102268369774	1017.473325568380	444.006309355373	854.389917363311	1440.404663371837	264.117266524742	946.987848808634	1369.524183497711	430.962346908648	854.876067750855	1446.352459133389	600.246999359250	850.201988138674	1503.204152246186	414.632674481018	880.006845468444	953.598638004101	569.108979670096	963.987362685831	786.025139878550	538.722960857689	927.189372298397	664.908797203107	611.634606627949	1015.039221184819	625.297243602375	530.943627645170	1038.108842550185	515.387653987044	554.439599898177	909.793246781848	746.863509195722	329.725045469527	812.086179463085	638.337326648047	271.658072201061	886.094975654806	555.916466396315	338.895895949104	879.816197171770	487.653742880005	352.278896824882	854.693429167466	417.819181667884	344.661409191122	766.767449811988	302.909717765402	294.536416353133	812.083852888188	193.806344416049	371.419299347357	970.757935651231	435.496023021403	562.143962620413	857.451049779806	379.087179057603	622.953772168563	857.889887605879	269.286621490844	574.357350548624	667.387096265403	184.118612328182	547.239098908834	840.619850070901	143.246904955945	587.855885486129	732.374087952372	133.063479636689	622.042609271893	916.468122566582	39.432296418809	617.956109030718	679.452553853595	38.839944278105	413.875708723001	755.655124590074	35.492747399588	334.941136789086	839.056922807801	95.907860114762	362.811997582658	967.795778925498	40.953079872072	338.585531998076	882.471322769450	1092.003877938589	131.312561299740	1073.809181636386	913.889920970393	129.858117311309	744.043205161337	1119.750806872674	715.889742652435	748.828082587053	859.867519782861	736.915832780175	
7	40.829285714286	881.329727240375	966.252967296632	293.897536768401	657.016370685480	1017.959795761854	442.788472148572	855.496961649159	1440.531092643179	263.876005403439	946.665124009115	1369.691507848863	431.503984502720	853.255452285906	1446.749637950773	600.010799716716	849.918086871912	1503.396484106436	414.355753110307	878.595285422293	953.976927489775	569.251369454400	963.282403773999	787.490864850777	538.842069166077	927.525784813095	666.170057351986	612.204164423396	1015.256307454494	626.997753523811	531.385004753709	1039.992761951726	518.697925296666	555.192107831574	907.096994857048	745.971453048658	329.763995903225	807.935274392121	638.576517135195	271.142150492314	880.669397837799	555.296324172282	338.386335504961	873.512425790979	487.355658875618	351.735444587245	848.449993579626	417.831716711963	344.096991302209	760.261130831262	303.061237824490	294.107228392966	805.559772929245	193.891351821885	371.032642014457	976.195534286391	437.032651723480	562.923523432099	866.026954183765	375.002492076274	623.799581816904	872.085702228286	265.362002608676	575.074241729588	686.327577041894	170.117777868965	547.776691751490	861.337486815164	138.843687428137	588.655790681767	753.898518732823	122.868361517313	622.844783527786	942.705338944923	39.386917305964	619.092016187586	672.815794222639	38.956424724993	413.784018538165	749.023798637575	35.491966600548	334.897646304046	832.469746535994	95.897698990385	362.644204186386	961.176326666980	40.862973453497	338.543687829022	885.976570858261	1092.720199139370	130.632447182336	1083.220047017066	921.029748377901	129.182582144056	734.252288253134	1123.287135754444	714.980334316063	730.515279999957	863.335917123392	737.198328433364	
